# AST/ASF file generated using VICON BodyLanguage
# -----------------------------------------------
:version 1.10
:name VICON
:units
  mass 1.0
  length 0.45
  angle deg
:documentation
   .ast/.asf automatically generated from VICON data using
   VICON BodyBuilder and BodyLanguage model FoxedUp or BRILLIANT.MOD
:root
   order TX TY TZ RX RY RZ
   axis XYZ
   position 0 0 0  
   orientation 0 0 0 
:bonedata
  begin
     id 1 
     name lhipjoint
     direction 0.623529 -0.717805 0.309788 
     length 2.23224 
     axis 0 0 0  XYZ
  end
  begin
     id 2 
     name lfemur
     direction 0.34202 -0.939693 0  
     length 7.11402  
     axis 0 0 20  XYZ
    dof rx ry rz
    limits (-160.0 20.0)
           (-70.0 70.0)
           (-60.0 70.0)
  end
  begin
     id 3 
     name ltibia
     direction 0.34202 -0.939693 0   
     length 6.78496   
     axis 0 0 20   XYZ
    dof rx
    limits (-10.0 170.0)
  end
  begin
     id 4 
     name lfoot
     direction 0.125078 -0.343648 0.930732   
     length 1.84054   
     axis -90 7.62852e-016 20   XYZ
    dof rx rz
    limits (-45.0 90.0)
           (-70.0 20.0)
  end
  begin
     id 5 
     name ltoes
     direction 1.53565e-011 -4.21893e-011 1   
     length 0.916474   
     axis -90 7.62852e-016 20   XYZ
    dof rx
    limits (-90.0 20.0)
  end
  begin
     id 6 
     name rhipjoint
     direction -0.564688 -0.757748 0.327026   
     length 2.11457  
     axis 0 0 0  XYZ 
  end
  begin
     id 7 
     name rfemur
     direction -0.34202 -0.939693 0   
     length 7.14609   
     axis 0 0 -20   XYZ
    dof rx ry rz
    limits (-160.0 20.0)
           (-70.0 70.0)
           (-70.0 60.0)
  end
  begin
     id 8 
     name rtibia
     direction -0.34202 -0.939693 0   
     length 6.78101   
     axis 0 0 -20   XYZ
    dof rx
    limits (-10.0 170.0)
 end
 begin
     id 9 
     name rfoot
     direction -0.0992671 -0.272734 0.956955   
     length 1.96168  
     axis -90 -7.62852e-016 -20   XYZ
    dof rx rz
    limits (-45.0 90.0)
           (-20.0 70.0)
  end
  begin
     id 10 
     name rtoes
     direction -1.5356e-011 -4.21891e-011 1   
     length 0.982933   
     axis -90 -7.62852e-016 -20   XYZ
    dof rx
    limits (-90.0 20.0)
  end
  begin
     id 11 
     name lowerback
     direction -0.00596953 0.998668 0.0512524   
     length 1.87557   
     axis 0 0 0   XYZ
    dof rx ry rz
    limits (-20.0 45.0)
           (-30.0 30.0)
           (-30.0 30.0)
  end
  begin
     id 12 
     name upperback
     direction 0.00584879 0.999652 0.0257308   
     length 1.87883   
     axis 0 0 0   XYZ
    dof rx ry rz
    limits (-20.0 45.0)
           (-30.0 30.0)
           (-30.0 30.0)
  end
  begin
     id 13 
     name thorax
     direction 0.010104 0.999947 0.00178881   
     length 1.87779   
     axis 0 0 0   XYZ
    dof rx ry rz
    limits (-20.0 45.0)
           (-30.0 30.0)
           (-30.0 30.0)
  end
  begin
     id 14 
     name lowerneck
     direction 0.0120771 0.995934 -0.0892773   
     length 1.40897   
     axis 0 0 0   XYZ
    dof rx ry rz
    limits (-20.0 45.0)
           (-30.0 30.0)
           (-30.0 30.0)
  end
  begin
     id 15 
     name upperneck
     direction -0.030568 0.999465 -0.0116366   
     length 1.38661   
     axis 0 0 0   XYZ
    dof rx ry rz
    limits (-20.0 45.0)
           (-30.0 30.0)
           (-30.0 30.0)
  end
  begin
     id 16
     name head
     direction -0.0170715 0.999854 -0.00104426  
     length 1.47052  
     axis 0 0 0   XYZ
    dof rx ry rz
    limits (-20.0 45.0)
           (-30.0 30.0)
           (-30.0 30.0)
  end
  begin
     id 17 
     name lclavicle
     direction 0.977763 0.206143 0.038532  
     length 3.02424  
     axis 0 0 0   XYZ
    dof ry rz
    limits (-20.0 10.0)
           (0.0 20.0)
  end
  begin
     id 18 
     name lhumerus
     direction 1 -4.48965e-011 -2.62654e-027   
     length 4.68382   
     axis 180 -30 -90   XYZ
    dof rx ry rz
    limits (-60.0 90.0)
           (-90.0 90.0)
           (-90.0 90.0)
  end
  begin
     id 19
     name lradius
     direction 1 -4.48973e-011 -1.54954e-027   
     length 2.98124   
     axis 180 -30 -90   XYZ
    dof rx
    limits (-10.0 170.0)
  end
  begin
     id 20
     name lwrist
     direction 1 -4.48959e-011 7.20928e-028   
     length 1.49062   
     axis -5.52449e-016 90 90   XYZ
    dof ry
    limits (-180.0 0.0)
 end
  begin
     id 21 
     name lhand
     direction 1 -4.48971e-011 1.44186e-027   
     length 0.707595   
     axis -9.20027e-016 90 90   XYZ
    dof rx rz
    limits (-90.0 90.0)
           (-45.0 45.0)
  end
  begin
     id 22 
     name lfingers
     direction 1 -4.48985e-011 2.88371e-027   
     length 0.570481   
     axis -1.84005e-015 90 90   XYZ
    dof rx
    limits (0.0 90.0)
  end
  begin
     id 23
     name lthumb
     direction 0.707107 -6.34929e-011 0.707107   
     length 0.819101   
     axis -90 45 2.85299e-015   XYZ
    dof rx rz
    limits (-45.0 45.0)
           (-45.0 45.0)
  end
  begin
     id 24 
     name rclavicle
     direction -0.958661 0.284411 -0.00895327   
     length 3.11921  
     axis 0 0 0   XYZ 
    dof ry rz
    limits (-10.0 20.0)
           (-20.0 0.0)
  end
  begin
     id 25 
     name rhumerus
     direction -1 -4.48963e-011 -4.22193e-027  
     length 4.75876   
     axis 180 30 90   XYZ
    dof rx ry rz
    limits (-90.0 60.0)
           (-90.0 90.0)
           (-90.0 90.0)
  end
  begin
     id 26 
     name rradius
     direction -1 -4.48968e-011 -1.07616e-027   
     length 2.93293   
     axis 180 30 90   XYZ
    dof rx
    limits (-10.0 170.0)
  end
  begin
     id 27 
     name rwrist
     direction -1 -4.48965e-011 7.20928e-028   
     length 1.46647   
     axis -5.52449e-016 -90 -90   XYZ
    dof ry
    limits (-180.0 0.0)
  end
  begin
     id 28
     name rhand
     direction -1 -4.48971e-011 1.44186e-027   
     length 0.831748   
     axis -9.20027e-016 -90 -90   XYZ
    dof rx rz
    limits (-90.0 90.0)
           (-45.0 45.0)
  end
  begin
     id 29
     name rfingers
     direction -1 -4.48961e-011 2.88371e-027   
     length 0.670577   
     axis -1.84005e-015 -90 -90   XYZ
    dof rx
    limits (0.0 90.0)
  end
  begin
     id 30
     name rthumb
     direction -0.707107 -6.34929e-011 0.707107   
     length 0.962818   
     axis -90 -45 -2.85299e-015   XYZ
    dof rx rz
    limits (-45.0 45.0)
           (-45.0 45.0)
  end
:hierarchy
  begin
    root lhipjoint rhipjoint lowerback
    lhipjoint lfemur
    lfemur ltibia
    ltibia lfoot
    lfoot ltoes
    rhipjoint rfemur
    rfemur rtibia
    rtibia rfoot
    rfoot rtoes
    lowerback upperback
    upperback thorax
    thorax lowerneck lclavicle rclavicle
    lowerneck upperneck
    upperneck head
    lclavicle lhumerus
    lhumerus lradius
    lradius lwrist
    lwrist lhand lthumb
    lhand lfingers
    rclavicle rhumerus
    rhumerus rradius
    rradius rwrist
    rwrist rhand rthumb
    rhand rfingers
  end

#!OML:ASF E:\id_vita\Project 1\Capture day 1\Session 1\Female.ASF
:FULLY-SPECIFIED
:DEGREES
1
root 8.22608 27.2248 0.294244 -159.706 -87.9499 171.855
lowerback -15.1947 -1.22585 -3.56028
upperback -4.36563 -1.28566 -0.380727
thorax 3.94468 -0.742652 1.37093
lowerneck 0.345047 -2.8853 -7.83944
upperneck 11.2341 -4.62966 7.51147
head 3.62827 -2.40606 3.42492
rclavicle 1.963e-015 -7.15625e-015
rhumerus 9.92336 -15.541 -43.0871
rradius 122.689
rwrist -4.87825
rhand -23.1334 9.082
rfingers 7.12502
rthumb 3.31423 -20.872
lclavicle 1.963e-015 -7.15625e-015
lhumerus 31.6423 11.5719 27.138
lradius 103.209
lwrist -10.6633
lhand -32.175 33.6295
lfingers 7.12502
lthumb -5.41771 63.5403
rfemur -19.1752 11.2533 18.6523
rtibia 26.16
rfoot -8.12055 -23.7615
rtoes -6.47708
lfemur -18.1661 -10.2831 -19.3116
ltibia 26.8345
lfoot -18.882 17.4975
ltoes 11.4745
2
root 8.22786 27.234 0.293399 -158.73 -87.9656 170.871
lowerback -14.851 -1.20291 -3.6245
upperback -4.52088 -1.26976 -0.372948
thorax 3.59623 -0.730079 1.42643
lowerneck 1.02894 -2.88926 -7.61049
upperneck 10.7817 -4.63839 7.26977
head 3.37045 -2.42401 3.32428
rclavicle -1.38901e-014 -8.74653e-015
rhumerus 9.84372 -15.5011 -42.9079
rradius 122.684
rwrist -4.8931
rhand -22.942 9.07263
rfingers 7.12502
rthumb 3.49914 -20.8784
lclavicle -1.38901e-014 -8.74653e-015
lhumerus 31.6166 11.4307 27.0764
lradius 103.008
lwrist -10.6651
lhand -32.293 33.5181
lfingers 7.12502
lthumb -5.53167 63.4259
rfemur -19.089 11.2399 18.6231
rtibia 25.9822
rfoot -7.87602 -23.6804
rtoes -6.93026
lfemur -18.3572 -10.3084 -19.3433
ltibia 26.9998
lfoot -18.7916 17.5106
ltoes 11.3651
3
root 8.23891 27.235 0.299208 -157.959 -88.0095 170.129
lowerback -14.3716 -1.1988 -3.54872
upperback -4.76276 -1.30948 -0.391685
thorax 3.08383 -0.74318 1.36894
lowerneck 1.60618 -2.73494 -7.73031
upperneck 10.5268 -4.47887 7.48237
head 3.19252 -2.35639 3.42507
rclavicle 1.51325e-014 3.57812e-015
rhumerus 9.73783 -15.3311 -42.7357
rradius 122.63
rwrist -4.8002
rhand -22.7907 9.0214
rfingers 7.12502
rthumb 3.64525 -20.9272
lclavicle 1.51325e-014 3.57812e-015
lhumerus 31.5818 11.3408 27.0058
lradius 102.875
lwrist -10.6451
lhand -32.2247 33.3387
lfingers 7.12502
lthumb -5.46568 63.2482
rfemur -19.1138 10.9405 18.5965
rtibia 25.9159
rfoot -7.96116 -23.4038
rtoes -6.87509
lfemur -18.4887 -10.3412 -19.3773
ltibia 27.1289
lfoot -18.7785 17.54
ltoes 11.2214
4
root 8.24984 27.2387 0.303793 -154.881 -87.9987 167.193
lowerback -14.7935 -1.15277 -3.51485
upperback -4.38632 -1.20567 -0.500867
thorax 3.69974 -0.698421 1.24121
lowerneck 1.51246 -2.72559 -7.6481
upperneck 9.96439 -4.41429 7.52571
head 3.03423 -2.30946 3.42633
rclavicle -1.08089e-014 -6.36111e-015
rhumerus 10.2666 -15.9594 -42.7708
rradius 122.504
rwrist -4.4789
rhand -22.234 8.64604
rfingers 7.12502
rthumb 4.18279 -21.2926
lclavicle -1.08089e-014 -6.36111e-015
lhumerus 32.3328 11.8891 27.1026
lradius 102.637
lwrist -10.6736
lhand -32.1837 33.1385
lfingers 7.12502
lthumb -5.42607 63.049
rfemur -19.294 10.6954 18.4369
rtibia 25.879
rfoot -8.02984 -23.2232
rtoes -6.66988
lfemur -18.7886 -10.3008 -19.4942
ltibia 27.2329
lfoot -18.709 17.514
ltoes 11.0709
5
root 8.25698 27.2418 0.306451 -157.504 -87.9979 169.829
lowerback -14.7972 -1.04992 -3.38827
upperback -4.21015 -1.07445 -0.48641
thorax 3.88006 -0.633155 1.20657
lowerneck 1.20109 -2.7117 -7.80468
upperneck 9.89089 -4.38152 7.76767
head 3.06851 -2.28111 3.52267
rclavicle 8.17502e-015 -7.55382e-015
rhumerus 10.5089 -16.1726 -42.5898
rradius 122.417
rwrist -4.77754
rhand -22.127 8.74952
rfingers 7.12502
rthumb 4.28617 -21.1871
lclavicle 8.17502e-015 -7.55382e-015
lhumerus 32.8568 12.1168 27.2737
lradius 102.387
lwrist -10.549
lhand -32.3252 32.8646
lfingers 7.12502
lthumb -5.56268 62.7716
rfemur -19.4134 10.713 18.5135
rtibia 26.014
rfoot -8.23561 -23.2703
rtoes -6.17508
lfemur -18.8994 -10.2181 -19.404
ltibia 27.2562
lfoot -18.6462 17.4889
ltoes 10.9502
6
root 8.26335 27.2362 0.306268 -156.94 -87.8911 169.283
lowerback -14.425 -0.967511 -3.44385
upperback -4.42654 -0.986272 -0.487835
thorax 3.44774 -0.584643 1.25989
lowerneck 1.23308 -2.38938 -7.69631
upperneck 9.92556 -3.95424 7.78458
head 3.03689 -2.06656 3.52399
rclavicle 5.34234e-015 1.51076e-014
rhumerus 10.3033 -16.0868 -42.2793
rradius 122.447
rwrist -4.86667
rhand -22.423 9.2173
rfingers 7.12502
rthumb 4.00031 -20.7249
lclavicle 5.34234e-015 1.51076e-014
lhumerus 32.9421 11.9366 27.3684
lradius 102.215
lwrist -10.3632
lhand -32.2664 32.7036
lfingers 7.12502
lthumb -5.50598 62.6121
rfemur -19.5094 10.6986 18.4564
rtibia 26.0606
rfoot -8.30498 -23.1801
rtoes -6.15918
lfemur -18.9299 -10.1488 -19.4543
ltibia 27.34
lfoot -18.7158 17.5441
ltoes 10.9607
7
root 8.27223 27.2196 0.30757 -155.734 -87.8186 168.12
lowerback -14.726 -0.944279 -3.45749
upperback -4.169 -0.922075 -0.536885
thorax 3.87798 -0.557536 1.22069
lowerneck 1.24426 -2.28666 -7.7019
upperneck 9.53666 -3.79712 7.93572
head 2.90885 -1.98029 3.57646
rclavicle -1.98785e-016 3.89618e-014
rhumerus 10.5972 -16.2724 -42.2493
rradius 122.346
rwrist -4.99362
rhand -22.9656 9.79997
rfingers 7.12502
rthumb 3.47635 -20.1514
lclavicle -1.98785e-016 3.89618e-014
lhumerus 33.3177 12.3895 27.4524
lradius 102.118
lwrist -10.2512
lhand -31.8875 32.6577
lfingers 7.12502
lthumb -5.14006 62.5754
rfemur -19.7075 10.5782 18.3791
rtibia 26.2431
rfoot -8.09351 -23.029
rtoes -7.05516
lfemur -18.8413 -10.1162 -19.5212
ltibia 27.3435
lfoot -18.8725 17.5676
ltoes 11.1535
8
root 8.27478 27.2275 0.303357 -159.431 -87.9036 171.798
lowerback -14.7993 -0.93487 -3.33167
upperback -4.0086 -0.913933 -0.515343
thorax 4.08556 -0.553938 1.17132
lowerneck 0.906261 -2.27993 -7.57252
upperneck 9.7887 -3.77437 7.84725
head 3.03423 -1.95999 3.52394
rclavicle 2.29845e-015 -2.38542e-015
rhumerus 10.7709 -16.4145 -42.2402
rradius 122.292
rwrist -4.83179
rhand -22.8326 9.50723
rfingers 7.12502
rthumb 3.60476 -20.442
lclavicle 2.29845e-015 -2.38542e-015
lhumerus 33.5095 12.6893 27.4241
lradius 102.079
lwrist -10.1336
lhand -31.4138 32.429
lfingers 7.12502
lthumb -4.68273 62.3573
rfemur -19.7437 10.7225 18.5548
rtibia 26.3419
rfoot -7.90879 -23.1889
rtoes -7.30721
lfemur -18.9813 -10.0691 -19.3198
ltibia 27.3936
lfoot -18.8189 17.4565
ltoes 11.1367
9
root 8.28673 27.2218 0.30693 -152.379 -87.8546 164.928
lowerback -14.9274 -0.958308 -3.53282
upperback -3.95366 -0.903088 -0.610409
thorax 4.21303 -0.551994 1.18458
lowerneck 0.801578 -2.27947 -7.28098
upperneck 9.84918 -3.74775 7.54763
head 3.05814 -1.94336 3.38302
rclavicle -6.44808e-015 8.74653e-015
rhumerus 11.0123 -16.691 -42.2335
rradius 122.345
rwrist -4.24773
rhand -22.509 8.86256
rfingers 7.12502
rthumb 3.91721 -21.0812
lclavicle -6.44808e-015 8.74653e-015
lhumerus 33.6924 12.8758 27.4198
lradius 101.949
lwrist -10.1772
lhand -31.0139 31.9296
lfingers 7.12502
lthumb -4.2966 61.8661
rfemur -20.084 10.4353 18.2372
rtibia 26.5209
rfoot -8.0961 -23.0079
rtoes -7.08647
lfemur -19.1057 -10.036 -19.5941
ltibia 27.4036
lfoot -18.9472 17.3555
ltoes 11.3146
10
root 8.28893 27.2303 0.301017 -158.655 -87.9829 171.128
lowerback -14.7449 -0.948609 -3.33953
upperback -3.88606 -0.922251 -0.537858
thorax 4.18577 -0.557761 1.15025
lowerneck 0.45373 -2.36788 -7.37614
upperneck 10.0453 -3.88056 7.82463
head 3.19001 -1.99621 3.47495
rclavicle -1.1455e-014 -2.38542e-015
rhumerus 11.0895 -16.4424 -42.0962
rradius 122.198
rwrist -4.87038
rhand -23.5097 9.63328
rfingers 7.12502
rthumb 2.95089 -20.3261
lclavicle -1.1455e-014 -2.38542e-015
lhumerus 33.8798 12.9676 27.4292
lradius 101.77
lwrist -10.1726
lhand -30.7445 31.2916
lfingers 7.12502
lthumb -4.03637 61.2331
rfemur -19.9699 10.632 18.5544
rtibia 26.4633
rfoot -8.00122 -23.1356
rtoes -7.09167
lfemur -19.2455 -9.93037 -19.291
ltibia 27.5473
lfoot -18.8325 17.2702
ltoes 11.0271
11
root 8.29988 27.2237 0.30573 -155.967 -87.9837 168.664
lowerback -14.6826 -0.953 -3.32787
upperback -3.98809 -0.937931 -0.577974
thorax 4.04425 -0.564694 1.1005
lowerneck 0.012047 -2.47417 -6.71503
upperneck 10.4365 -3.94406 6.86499
head 3.35855 -2.02714 3.06218
rclavicle 1.10574e-015 1.03368e-014
rhumerus 11.1523 -16.4665 -42.028
rradius 122.228
rwrist -4.64606
rhand -23.2645 9.34048
rfingers 7.12502
rthumb 3.18771 -20.6154
lclavicle 1.10574e-015 1.03368e-014
lhumerus 34.0048 13.0138 27.4506
lradius 101.655
lwrist -10.0109
lhand -30.511 30.7572
lfingers 7.12502
lthumb -3.81097 60.7029
rfemur -20.2978 10.4246 18.4155
rtibia 26.531
rfoot -8.01669 -22.9731
rtoes -7.42458
lfemur -19.4612 -9.84124 -19.366
ltibia 27.6242
lfoot -18.9453 17.1553
ltoes 11.129
12
root 8.30479 27.2347 0.307426 -155.71 -88.0271 168.576
lowerback -14.686 -0.955652 -3.25181
upperback -4.03172 -0.954835 -0.600738
thorax 3.99942 -0.572711 1.03099
lowerneck 0.90159 -2.18396 -7.12588
upperneck 9.24386 -3.56018 7.27631
head 3.16534 -1.87404 3.63114
rclavicle 5.11871e-015 1.07344e-014
rhumerus 11.2674 -16.4996 -42.0185
rradius 122.245
rwrist -4.58981
rhand -23.0137 9.13832
rfingers 7.12502
rthumb 3.42988 -20.8138
lclavicle 5.11871e-015 1.07344e-014
lhumerus 34.1481 13.1041 27.52
lradius 101.616
lwrist -9.82689
lhand -30.4643 30.3403
lfingers 7.12502
lthumb -3.7658 60.2867
rfemur -20.4735 10.3138 18.3914
rtibia 26.4637
rfoot -8.17007 -22.928
rtoes -6.9215
lfemur -19.9369 -9.74677 -19.3384
ltibia 27.8016
lfoot -18.7313 17.1132
ltoes 10.5505
13
root 8.30892 27.2373 0.306138 -154.79 -88.0525 167.787
lowerback -14.627 -0.947141 -3.25192
upperback -4.13068 -0.951592 -0.636923
thorax 3.86243 -0.570535 0.995475
lowerneck 0.929907 -2.19338 -6.93526
upperneck 9.51575 -3.57818 7.03231
head 3.24175 -1.88709 3.50913
rclavicle 8.87077e-015 3.57812e-015
rhumerus 11.3068 -16.4898 -41.9464
rradius 122.299
rwrist -4.57636
rhand -22.7951 8.95322
rfingers 7.12502
rthumb 3.64099 -20.9954
lclavicle 8.87077e-015 3.57812e-015
lhumerus 34.2711 13.1144 27.5911
lradius 101.569
lwrist -9.65642
lhand -30.193 29.7696
lfingers 7.12502
lthumb -3.50379 59.7206
rfemur -20.651 10.2207 18.3559
rtibia 26.4767
rfoot -8.41171 -22.9
rtoes -6.17375
lfemur -20.2305 -9.63962 -19.3386
ltibia 27.952
lfoot -18.7478 16.9707
ltoes 10.5766
14
root 8.31365 27.2344 0.302445 -154.238 -88.0416 167.356
lowerback -14.5573 -0.917761 -3.31035
upperback -4.22646 -0.9136 -0.647032
thorax 3.72262 -0.551113 1.0265
lowerneck 0.86762 -2.20149 -6.8861
upperneck 9.97341 -3.64778 7.3461
head 3.06673 -1.88976 3.25985
rclavicle 6.02566e-015 -2.78299e-015
rhumerus 11.2596 -16.4247 -41.781
rradius 122.26
rwrist -4.07123
rhand -23.2101 8.95758
rfingers 7.12502
rthumb 3.24024 -20.9975
lclavicle 6.02566e-015 -2.78299e-015
lhumerus 34.4018 13.1132 27.6963
lradius 101.538
lwrist -9.47005
lhand -29.4714 29.0576
lfingers 7.12502
lthumb -2.80696 59.0189
rfemur -20.7993 10.3155 18.3092
rtibia 26.4473
rfoot -8.24823 -22.9548
rtoes -6.35885
lfemur -20.4742 -9.61628 -19.3116
ltibia 28.1195
lfoot -18.8202 16.9095
ltoes 10.803
15
root 8.32469 27.2344 0.306378 -157.713 -88.0624 170.888
lowerback -14.4099 -0.819171 -3.0856
upperback -4.23536 -0.819845 -0.651182
thorax 3.62762 -0.502158 0.913909
lowerneck 0.951493 -2.36185 -6.55464
upperneck 9.49702 -3.77968 6.66016
head 3.22328 -1.98344 3.29733
rclavicle 4.83295e-015 -1.98785e-015
rhumerus 11.0705 -16.0735 -41.5254
rradius 121.935
rwrist -3.53782
rhand -25.0656 9.76993
rfingers 7.12502
rthumb 1.44817 -20.2049
lclavicle 4.83295e-015 -1.98785e-015
lhumerus 34.663 13.1414 27.9134
lradius 101.563
lwrist -9.17078
lhand -28.7614 28.2744
lfingers 7.12502
lthumb -2.12124 58.2436
rfemur -20.9242 10.1934 18.425
rtibia 26.491
rfoot -8.08581 -22.7938
rtoes -6.8954
lfemur -20.6514 -9.65357 -19.1705
ltibia 28.2528
lfoot -18.7751 17.0011
ltoes 10.6554
